<svg xmlns="http://www.w3.org/2000/svg" width="24" height="24" viewBox="0 0 24 24">
    <path style="fill:none" d="M0 0h24v24H0z"/>
    <g data-name="↳Color" style="stroke-miterlimit:10;fill:none">
        <path d="M16 0H2a2 2 0 0 0-2 2v14a2 2 0 0 0 2 2h14a2 2 0 0 0 2-2V2a2 2 0 0 0-2-2z" style="stroke:none" transform="translate(3 3)"/>
        <path d="M2 1.5a.5.5 0 0 0-.5.5v14a.5.5 0 0 0 .5.5h14a.5.5 0 0 0 .5-.5V2a.5.5 0 0 0-.5-.5H2M2 0h14a2 2 0 0 1 2 2v14a2 2 0 0 1-2 2H2a2 2 0 0 1-2-2V2a2 2 0 0 1 2-2z" style="fill:#817e90;stroke:none" transform="translate(3 3)"/>
    </g>
</svg>
