<svg xmlns="http://www.w3.org/2000/svg" width="17" height="17" viewBox="0 0 17 17">
    <path style="fill:#23212a" d="M0 0h17v17H0z"/>
    <path data-name="Union 55" d="M11102.832-6368.642c-.24-4.345-2.568-6.04-2.568-6.04a7.7 7.7 0 0 1 4.6 4.325c.438-3.409-2.09-8.649-2.09-8.649a51.639 51.639 0 0 1 3.939 6.648c2.348 4.536.363 7.795.363 7.795zm10.432-6.489a8.3 8.3 0 0 0-2.168 6.01l-2.269 2.408a9.225 9.225 0 0 1 4.437-8.418zm-5.926 2.135s.213-1.294 3.563-5.771a91.66 91.66 0 0 0-2.705 8.834z" transform="translate(-11098.264 6380.006)" style="fill:#fff"/>
</svg>
