<svg xmlns="http://www.w3.org/2000/svg" width="50" height="50" viewBox="0 0 50 50">
    <path style="fill:none" d="M0 0h50v50H0z"/>
    <path data-name="Union 63" d="M0 18.24A15.46 15.46 0 0 1 11.773 3.192l.006-1.963A1.229 1.229 0 0 1 13.627.168l5.531 3.212a1.229 1.229 0 0 1 0 2.128l-5.552 3.185a1.213 1.213 0 0 1-.613.163 1.231 1.231 0 0 1-1.231-1.233l.006-1.88a13.041 13.041 0 1 0 11.708 2.179 1.23 1.23 0 0 1 1.507-1.945A15.5 15.5 0 1 1 0 18.24zM14.229 5.5l1.85-1.062-1.845-1.074z" transform="translate(10 8)" style="stroke:transparent;stroke-miterlimit:10;fill:#fff"/>
    <text data-name="5" transform="translate(25 32)" style="font-size:16px;font-family:SpoqaHanSansNeo-Bold,Spoqa Han Sans Neo;font-weight:700;fill:#fff"><tspan x="-4.768" y="0">5</tspan></text>
</svg>
