<svg xmlns="http://www.w3.org/2000/svg" width="50" height="50" viewBox="0 0 50 50">
  <defs>
    <style>
      .cls-1 {
        fill: none;
      }

      .cls-2, .cls-3 {
        fill: #fff;
      }

      .cls-2 {
        stroke: rgba(0,0,0,0);
        stroke-miterlimit: 10;
      }

      .cls-3 {
        font-size: 16px;
        font-family: SpoqaHanSansNeo-Bold, Spoqa Han Sans Neo;
        font-weight: 700;
      }
    </style>
  </defs>
  <g id="pre_30" transform="translate(-527 -743)">
    <g id="btn_pre" transform="translate(542.5 748.5)">
      <rect id="area" class="cls-1" width="50" height="50" transform="translate(-15.5 -5.5)"/>
      <path id="Union_61" data-name="Union 61" class="cls-2" d="M0,18.24A15.46,15.46,0,0,1,11.773,3.192l.006-1.963A1.229,1.229,0,0,1,13.627.168L19.158,3.38a1.229,1.229,0,0,1,0,2.128L13.606,8.693a1.213,1.213,0,0,1-.613.163,1.231,1.231,0,0,1-1.231-1.233l.006-1.88A13.041,13.041,0,1,0,23.476,7.922a1.23,1.23,0,0,1,1.507-1.945A15.5,15.5,0,1,1,0,18.24ZM14.229,5.5l1.85-1.062L14.234,3.364Z" transform="translate(-5.5 2.5)"/>
    </g>
    <text id="_30" data-name="30" class="cls-3" transform="translate(552 775)"><tspan x="-9.536" y="0">30</tspan></text>
  </g>
</svg>
