<!-- <svg xmlns="http://www.w3.org/2000/svg" width="24" height="24" viewBox="0 0 24 24">
    <g data-name="icon/toggle/radio_button_checked_24px">
        <path style="fill:none" d="M0 0h24v24H0z"/>
        <path data-name="↳Color" d="M10 20a10 10 0 1 1 10-10 10.011 10.011 0 0 1-10 10zm0-18a8 8 0 1 0 8 8 8.009 8.009 0 0 0-8-8zm0 13a5 5 0 1 1 5-5 5.006 5.006 0 0 1-5 5z" transform="translate(2 2)" style="fill:#5942ba"/>
    </g>
</svg>
 -->



<svg id="btn_radio_on" xmlns="http://www.w3.org/2000/svg" width="24" height="24" viewBox="0 0 24 24">
  <defs>
    <style>
      .cls-1 {
        fill: none;
      }

      .cls-2 {
        fill: #5942ba;
      }

      .cls-3 {
        fill: #fff;
      }
    </style>
  </defs>
  <g id="btn_radio_on-2" data-name="btn_radio_on">
    <rect id="Boundary" class="cls-1" width="24" height="24"/>
    <path id="Path" class="cls-2" d="M10,0A10,10,0,1,0,20,10,10,10,0,0,0,10,0Z" transform="translate(2 2)"/>
    <path id="Path-2" data-name="Path" class="cls-2" d="M8,16a8,8,0,1,1,8-8A8,8,0,0,1,8,16Z" transform="translate(4 4)"/>
    <circle id="Oval-path" class="cls-3" cx="5" cy="5" r="5" transform="translate(7 7)"/>
  </g>
</svg>
