<svg xmlns="http://www.w3.org/2000/svg" width="24" height="24">
    <path style="fill:none" d="M0 0h24v24H0z"/>
    <g data-name="↳Color" style="stroke-miterlimit:10;fill:none">
        <path d="M16 0H2a2 2 0 0 0-2 2v14a2 2 0 0 0 2 2h14a2 2 0 0 0 2-2V2a2 2 0 0 0-2-2z" style="stroke:none" transform="translate(3 3)"/>
        <path d="M2 1c-.551 0-1 .449-1 1v14c0 .551.449 1 1 1h14c.551 0 1-.449 1-1V2c0-.551-.449-1-1-1H2m0-1h14a2 2 0 0 1 2 2v14a2 2 0 0 1-2 2H2a2 2 0 0 1-2-2V2a2 2 0 0 1 2-2z" style="fill:#5942ba;stroke:none" transform="translate(3 3)"/>
    </g>
</svg>
