<svg xmlns="http://www.w3.org/2000/svg" width="50" height="50" viewBox="0 0 50 50">
  <defs>
    <style>
      .cls-1 {
        fill: none;
      }

      .cls-2 {
        fill: #fff;
      }
    </style>
  </defs>
  <g id="btn_vol-1" transform="translate(-775 -743)">
    <rect id="area" class="cls-1" width="50" height="50" transform="translate(775 743)"/>
    <g id="Group_2217" data-name="Group 2217" transform="translate(-161 228)">
      <path id="Path_3189" data-name="Path 3189" class="cls-2" d="M19.852,14.541a1.5,1.5,0,0,1-1.5-1.5V7.677a1.5,1.5,0,0,1,3,0v5.364a1.5,1.5,0,0,1-1.5,1.5" transform="translate(947 530)"/>
      <path id="Path_3191" data-name="Path 3191" class="cls-2" d="M14.429.1a1.049,1.049,0,0,0-1.12.143L6.8,5.637l-5.741-.01h0A1.053,1.053,0,0,0,.007,6.679L0,14a1.055,1.055,0,0,0,1.052,1.054l5.742.008,6.492,5.408a1.053,1.053,0,0,0,1.727-.808l.021-18.611A1.054,1.054,0,0,0,14.429.1" transform="translate(947 530)"/>
    </g>
  </g>
</svg>
