<svg xmlns="http://www.w3.org/2000/svg" width="34" height="34" viewBox="0 0 34 34">
    <g data-name="ic_calendar">
        <path data-name="guidebox 24" style="fill:none;opacity:.3" d="M0 0h18v18H0z" transform="translate(8 8)"/>
        <path data-name="Union 10" d="M-1365-1053h-13a3 3 0 0 1-3-3v-6h1v6a2 2 0 0 0 2 2h12v-8h-15v-5h4v-2h1v2h6v-2h1v2h1a3 3 0 0 1 3 3v11zm-1-10v-1a2 2 0 0 0-2-2h-1v1h-1v-1h-6v1h-1v-1h-3v3zm-4.5 5.5v-1.5h1.5v1.5zm-3.25 0v-1.5h1.5v1.5zm-3.25 0v-1.5h1.5v1.5z" transform="translate(1390 1077)" style="fill:#fff"/>
    </g>
</svg>
