<svg xmlns="http://www.w3.org/2000/svg" width="15" height="15" viewBox="0 0 15 15">
    <path style="fill:none" d="M0 0h15v15H0z"/>
    <g data-name="Group 2160">
        <path data-name="Union 51" d="M11013.345-6052.073a3.023 3.023 0 0 0-2.631-.4.335.335 0 0 1-.408-.237.341.341 0 0 1 .231-.418 3.806 3.806 0 0 1 2.352.059 3.81 3.81 0 0 1-.1-2.573 3.634 3.634 0 0 1 1.929-1.694 3.446 3.446 0 0 1-1.825-1.925 4.053 4.053 0 0 1 .238-2.645 4.027 4.027 0 0 1-2.417.215 2.978 2.978 0 0 1-2.023-1.649c-.029-.06-.059-.12-.086-.179a4.009 4.009 0 0 1-1.353 1.738 3.27 3.27 0 0 1-2.885.066 4.608 4.608 0 0 1 .238 1.668.336.336 0 0 1-.354.317.336.336 0 0 1-.312-.359c0-.016.086-1.643-.77-2.166a.344.344 0 0 1-.115-.462.332.332 0 0 1 .453-.12c.622.36 2.438 1.153 3.366.5a3.853 3.853 0 0 0 1.393-2.374.337.337 0 0 1 .331-.292.335.335 0 0 1 .331.292c.011.081.309 2.007 1.927 2.359a3.39 3.39 0 0 0 2.863-.674.329.329 0 0 1 .44 0 .342.342 0 0 1 .061.442c-.012.016-1.124 1.762-.691 3.118.427 1.333 2.212 1.815 2.23 1.82a.341.341 0 0 1 .249.326.34.34 0 0 1-.252.329c-.019 0-1.884.5-2.352 1.617a2.929 2.929 0 0 0 .043 1.838 5.919 5.919 0 0 0 .408 1.035.343.343 0 0 1-.079.421.33.33 0 0 1-.215.079.33.33 0 0 1-.215-.072zm-9.53-3.472.68-.661.076-2.184.834-1.016 1.417-.469.272-.035-.234.251 2.3 2.143a1.154 1.154 0 0 1-.622.233 1.088 1.088 0 0 1-.8-.4l-.605-.605-.48.48.417.418a2.575 2.575 0 0 1-.19 2.436l.584.347a3.365 3.365 0 0 0 .484-2.109 1.526 1.526 0 0 0 .446.105l1.878 2.012-1.047.958-1.408.422-.834.794zm6.058-.338 1.479-1.379.534.463.028.556-1.233 1.226zm-.8-.87a2.3 2.3 0 0 0 .734-.535l.211-.247-.279-.261.81-.758.583.578-1.71 1.6zm-.5-2.139.988-.964.68.672-.989.925zm-1.318-1.249.614-.615.479-.076.182.048.51.51-.942.919z" transform="translate(-11001.999 6066.001)" style="fill:#fff"/>
    </g>
</svg>
