<svg xmlns="http://www.w3.org/2000/svg" width="15" height="15" viewBox="0 0 15 15">
  <defs>
    <style>
      .cls-1 {
        fill: none;
      }

      .cls-2 {
        fill: #fff;
      }
    </style>
  </defs>
  <g id="ic_gold" transform="translate(0 4)">
    <rect id="area" class="cls-1" width="15" height="15" transform="translate(0 -4)"/>
    <path id="Path_3165" data-name="Path 3165" class="cls-2" d="M220.01,455.973h-.023c-.227-.97-2.093-1.727-4.361-1.727s-4.134.757-4.361,1.727h-.023v2.085c-1.161.288-1.99.8-2.183,1.407,0,.01-.007.02-.01.029s-.011.027-.014.041h-.023V463c0,1.063,1.963,1.926,4.385,1.926s4.385-.863,4.385-1.926v-1.841c1.351-.332,2.231-.863,2.231-1.464a.632.632,0,0,0-.017-.111.889.889,0,0,0,.017-.146Zm-4.11,6.6a6.749,6.749,0,0,1-5.012,0v-1.5a13.367,13.367,0,0,0,3.622.454c.481,0,.945-.023,1.39-.062Z" transform="translate(-207.01 -456.246)"/>
  </g>
</svg>
