
<svg xmlns="http://www.w3.org/2000/svg" width="21" height="21" viewBox="0 0 21 21">
    <path style="fill:none" d="M0 0h21v21H0z"/>
    <path data-name="Union 49" d="m8273.292-2760.461 1.6-4.563a10.209 10.209 0 0 0-5.59 2.066 5.968 5.968 0 0 1 4.375-6.08 2.829 2.829 0 0 0 2.624 1.774 2.829 2.829 0 0 0 2.625-1.774 5.968 5.968 0 0 1 4.376 6.08 10.222 10.222 0 0 0-5.6-2.066l1.606 4.563zm.889-9.634a2.123 2.123 0 0 1 2.122-2.123 2.123 2.123 0 0 1 2.124 2.123 2.123 2.123 0 0 1-2.124 2.124 2.123 2.123 0 0 1-2.122-2.123z" transform="translate(-8265.304 2777.217)" style="fill:#fff"/>
</svg>
