<svg xmlns="http://www.w3.org/2000/svg" width="14.001" height="14" viewBox="0 0 14.001 14">
  <defs>
    <style>
      .cls-1 {
        fill: none;
      }

      .cls-2 {
        fill: #bc8ad5;
      }
    </style>
  </defs>
  <g id="ico-heralds" transform="translate(-713.999 -2687)">
    <rect id="area" class="cls-1" width="14" height="14" transform="translate(714 2687)"/>
    <g id="Group_1957" data-name="Group 1957" transform="translate(-1955.368 3237.102)">
      <path id="Path_3123" data-name="Path 3123" class="cls-2" d="M2683.751-542.165l-4.179-7.937.648,4.327h0a4.807,4.807,0,0,0-3.428-1.444,4.807,4.807,0,0,0-3.427,1.444h0l.614-4.327-4.183,7.937,2.311,1.465a4.921,4.921,0,0,0,4.686,3.579,4.921,4.921,0,0,0,4.694-3.608Zm-6.958,2.3a2.27,2.27,0,0,1-2.235-2.3,2.27,2.27,0,0,1,2.235-2.3,2.27,2.27,0,0,1,2.235,2.3A2.27,2.27,0,0,1,2676.793-539.867Z" transform="translate(-0.406 0)"/>
      <path id="Path_3124" data-name="Path 3124" class="cls-2" d="M2669.367-415.782l2.016,2.016-.994-3.008Z" transform="translate(0 -122.346)"/>
      <path id="Path_3125" data-name="Path 3125" class="cls-2" d="M2822.742-416.774l-.994,3.008,2.016-2.016Z" transform="translate(-140.397 -122.346)"/>
      <path id="Path_3126" data-name="Path 3126" class="cls-2" d="M2752.738-468h0l-.666,1.217.666,1.072h0l.666-1.072-.666-1.217Z" transform="translate(-76.371 -75.572)"/>
    </g>
  </g>
</svg>
