<svg xmlns="http://www.w3.org/2000/svg" width="14" height="14.001" viewBox="0 0 14 14.001">
  <defs>
    <style>
      .cls-1 {
        fill: #fff;
        opacity: 0;
      }

      .cls-2 {
        fill: #b4b4b4;
      }
    </style>
  </defs>
  <g id="ico-drake-cloud" transform="translate(-731 -2682)">
    <rect id="area" class="cls-1" width="14" height="14" transform="translate(731 2682)"/>
    <g id="Group_1956" data-name="Group 1956" transform="translate(2647.542 3914.69)">
      <path id="Union_58" data-name="Union 58" class="cls-2" d="M8056.458-7655.172v-2.589a8.48,8.48,0,0,0,2.824-3.284c.878-2.021,0-5.646,0-5.646,2.822,2.29,3.46,4.775,3.137,6.016s-2.024,2.293-3.137,3.885,0,4.1,0,4.1A6.418,6.418,0,0,0,8056.458-7655.172Zm4.167.395a2.684,2.684,0,0,1,2.4-.943c1.718.085,3.063-.573,4.465-2.948a6.236,6.236,0,0,1-.658,3.271,5.624,5.624,0,0,0-.945,2.08S8061.968-7655.206,8060.625-7654.777Zm1.479-3.443a4.74,4.74,0,0,0,1.954-5.646,3.98,3.98,0,0,1,2.09,2.822,3.9,3.9,0,0,1-3.331,4.09,9.512,9.512,0,0,0-2.936.977A7.6,7.6,0,0,1,8062.1-7658.221Z" transform="translate(-9971.999 6434.001)"/>
    </g>
  </g>
</svg>
