<svg xmlns="http://www.w3.org/2000/svg" width="14" height="14" viewBox="0 0 14 14">
    <path data-name="Path 3112" d="M-1489.452-1232.337s.8 2.426 0 3.261-2.585 1.949-3.142 2.824c0 0-.557-.4-.4-.915a2.752 2.752 0 0 0-1.311 2.347 3.874 3.874 0 0 0 1.033 2.625l3.381 3.381a1.925 1.925 0 0 0 1.473.477 1.532 1.532 0 0 0 1.391-.557l3.241-3.242a4.093 4.093 0 0 0 .577-1.809 3.29 3.29 0 0 0-3.341-2.9c-2.595 0-3.378 1.712-3.3 2.943.079 1.273 1.81 2.088 2.389.45 0 0 .276-.808-.361-1.047s.04-.488.636-.488 1.193.385 1.193.916a2.22 2.22 0 0 1-.527 1.481c-.682.711-1.1 1.263-1.9 1.263a2.153 2.153 0 0 1-1.313-.467 3.038 3.038 0 0 1-1.094-2.645 3.023 3.023 0 0 1 1.611-2.446s1.71-.676 1.949-1.869c.44-2.191-2.185-3.583-2.185-3.583z" transform="translate(1494.903 1232.337)" style="fill:#d87550"/>
</svg>
