<svg xmlns="http://www.w3.org/2000/svg" width="14" height="14" viewBox="0 0 14 14">
    <path data-name="Path 3273" d="M10.584 1.413s.085 1.793-1.537 1.025S7.641 0 5.329 0s-4.047 1.524-4.31 2.943.262 2-.631 2.943-.105 3.206.946 3.522a5.658 5.658 0 0 0 4.31-.263c1.314-.841 2.575-1.051 3-.263s.052 1.892-1.367 1.577-3.21-.259-3.157.841 1.367 1.734 2.523 1.945a3.127 3.127 0 0 0 1.524.052s-1.892.053-1.787-1.261 1.419-.789 2.1-.631 3 .526 3.889-.263 1.314-1.577 1.051-2.47-1.156-1.156-3.574-.946S7.431 5.834 6.17 5.992s-.578 1.419-.578 1.419-1.734-.158-1.84-1.419.948-1.525 1.84-1.419S7.431 6.044 8.85 6.465s2.418.578 3.469-.789-.263-2.956-1.734-4.264" style="fill:#bce08a"/>
</svg>
