<svg xmlns="http://www.w3.org/2000/svg" width="14" height="14" viewBox="0 0 14 14">
  <defs>
    <style>
      .cls-1 {
        fill: #fff;
        opacity: 0;
      }

      .cls-2 {
        fill: #62c1af;
      }
    </style>
  </defs>
  <g id="ico-drake-ocean" transform="translate(-731 -2682)">
    <rect id="area" class="cls-1" width="14" height="14" transform="translate(731 2682)"/>
    <path id="Path_3120" data-name="Path 3120" class="cls-2" d="M-1775.777-1217.478a10.77,10.77,0,0,1-1.545,3.047l.442,6,5.3,3.047s3.792-2.286,3.836-4.759-1.722-4.769-3.93-3.576c0,0-1.143.74-.613-.1s2.87-3.444,3.312-3.179-.569,1.187-.569,1.187-.751.706.353,1.325,2.1,1.536,2.169,4.018c.078,2.664-.717,3.59-.717,3.59l3.665-3.673a1.549,1.549,0,0,0,.221-1.545,1.266,1.266,0,0,0-.883-.795v-1.943s.132-.442-.618-1.192-2.428-3.312-3.709-3.356-3.841.353-4.459,1.192-1.81,2.428-1.81,2.428A3.024,3.024,0,0,0-1775.777-1217.478Z" transform="translate(2508.322 3901.379)"/>
  </g>
</svg>
