<svg xmlns="http://www.w3.org/2000/svg" width="24" height="24" viewBox="0 0 24 24">
    <g data-name="ico_ calculate">
        <path style="fill:none;opacity:.337" d="M0 0h24v24H0z"/>
        <path data-name="Union 71" d="M13074.482 9961.951a1.343 1.343 0 0 1-1.341-1.342v-1.885a1.341 1.341 0 0 1 1.341-1.34h1.888a1.344 1.344 0 0 1 1.342 1.34v1.885a1.346 1.346 0 0 1-1.342 1.342zm-6.715 0a1.344 1.344 0 0 1-1.341-1.342v-1.885a1.342 1.342 0 0 1 1.341-1.34h1.888a1.346 1.346 0 0 1 1.342 1.34v1.885a1.347 1.347 0 0 1-1.342 1.342zm-6.715 0a1.344 1.344 0 0 1-1.341-1.342v-1.885a1.342 1.342 0 0 1 1.341-1.34h1.888a1.343 1.343 0 0 1 1.342 1.34v1.885a1.345 1.345 0 0 1-1.342 1.342zm13.43-6.688a1.342 1.342 0 0 1-1.341-1.341v-1.889a1.342 1.342 0 0 1 1.341-1.341h1.888a1.346 1.346 0 0 1 1.342 1.341v1.889a1.346 1.346 0 0 1-1.342 1.341zm-6.715 0a1.344 1.344 0 0 1-1.341-1.341v-1.889a1.344 1.344 0 0 1 1.341-1.341h1.888a1.347 1.347 0 0 1 1.342 1.341v1.889a1.347 1.347 0 0 1-1.342 1.341zm-6.715 0a1.344 1.344 0 0 1-1.341-1.341v-1.889a1.344 1.344 0 0 1 1.341-1.341h1.888a1.345 1.345 0 0 1 1.342 1.341v1.889a1.345 1.345 0 0 1-1.342 1.341zm13.43-6.694a1.343 1.343 0 0 1-1.341-1.342v-1.887a1.345 1.345 0 0 1 1.341-1.342h1.888a1.349 1.349 0 0 1 1.342 1.342v1.887a1.346 1.346 0 0 1-1.342 1.342zm-6.715 0a1.344 1.344 0 0 1-1.341-1.342v-1.887a1.346 1.346 0 0 1 1.341-1.342h1.888a1.35 1.35 0 0 1 1.342 1.342v1.887a1.347 1.347 0 0 1-1.342 1.342zm-6.715 0a1.344 1.344 0 0 1-1.341-1.342v-1.887a1.346 1.346 0 0 1 1.341-1.342h1.888a1.347 1.347 0 0 1 1.342 1.342v1.887a1.345 1.345 0 0 1-1.342 1.342z" transform="translate(-13056.713 -9940.999)" style="fill:#fff"/>
    </g>
</svg>
