<svg xmlns="http://www.w3.org/2000/svg" width="24" height="24" viewBox="0 0 24 24">
    <path style="fill:none;opacity:.337" d="M0 0h24v24H0z"/>
    <path data-name="Union 69" d="M13068.992 10018.673a1.207 1.207 0 0 1-.315-.53l-1.051-3.382s.8.565 1.325.932.5.67.5.82.1.16.1.16.1-.009.1-.16-.028-.451.5-.82 1.325-.932 1.325-.932l-1.051 3.382a1.2 1.2 0 0 1-.317.53c-.244.291-.56.657-.56.657s-.312-.366-.556-.657zm2.86-3.979 2.1-1.109h.691l-2.724 2.367zm-7.393-1.109h.689l2.1 1.109-.071 1.258zm5.5-4.308 2.356-1.192a2.337 2.337 0 0 0 .753-.64l.524-.566v-.292a1.307 1.307 0 0 1 1.187-1.09v2.223a7.177 7.177 0 0 0-3.359 2.115l-.205 4.374-1.084.657zm-2.078 4.932-.2-4.374a7.194 7.194 0 0 0-3.362-2.115v-2.223a1.3 1.3 0 0 1 1.185 1.09v.292l.524.566a2.331 2.331 0 0 0 .756.64l2.354 1.192-.172 5.589zm4.9-1.5c.937-.671 1-.707 1-.707a1.065 1.065 0 0 0 .348-.589 40.04 40.04 0 0 1 .455-1.354l2.593-.529v.5a3.614 3.614 0 0 0-1.656 2.592l-3.671 1.848a2.341 2.341 0 0 1 .936-1.763zm-9.2-.083a3.62 3.62 0 0 0-1.655-2.592v-.5l2.592.529s.321.91.454 1.354a1.089 1.089 0 0 0 .349.589s.06.036.994.707a2.337 2.337 0 0 1 .938 1.765zm8.058-2.623a5.752 5.752 0 0 1 2.894-1.934s-.72 1.528-1.06 2.3c-.32.729-.513.812-.513.812l-1.433 1.2zm-5.5 1.182s-.191-.082-.515-.812c-.34-.775-1.06-2.3-1.06-2.3a5.748 5.748 0 0 1 2.9 1.934l.112 2.382zm9.521-5a7.761 7.761 0 0 0 2.53-1.27l-.819 2.21-2.048 1.441zm-13.937.94-.819-2.21a7.779 7.779 0 0 0 2.533 1.27l.334 2.382zm4.344-.432a1.512 1.512 0 0 0-.918-1.693l1.045-1.319 3.354 1.14 3.354-1.14 1.041 1.319a1.514 1.514 0 0 0-.918 1.693l-3.477 1.612zm9.577-2.274a4.936 4.936 0 0 0 2.321-.829l.062 1.077a8.546 8.546 0 0 1-2.021 1.119zm-14.574.248.06-1.077a4.947 4.947 0 0 0 2.318.829l-.358 1.367a8.55 8.55 0 0 1-2.015-1.116zm17.121-1.564a5.441 5.441 0 0 1-3.153 1.068l-.336-.722c2-.109 3.713-2.2 4.073-2.507s.323.215.323.215-.137 1.374-.237 2.231-.222.831-.222.831l-.323.447zm-17.734 1.117s-.124.026-.225-.831-.234-2.231-.234-2.231-.038-.524.322-.215 2.073 2.4 4.073 2.507l-.336.722a5.439 5.439 0 0 1-3.153-1.068l-.124 1.564zm10.358-1.334a8.386 8.386 0 0 0 2.948-1.326 1.369 1.369 0 0 0 .218-.221c.093-.123.262-.3.335-.241s.086.229-.194 1.27c0 0-.2.677-.584.767-.527.127-2.545.743-3.839 1.189a2.04 2.04 0 0 1 1.121-1.435zm-5.256.248c-.384-.09-.584-.767-.584-.767-.285-1.04-.271-1.221-.2-1.27s.243.118.334.241a1.493 1.493 0 0 0 .222.221 8.356 8.356 0 0 0 2.946 1.326 2.032 2.032 0 0 1 1.113 1.438c-1.283-.443-3.303-1.059-3.826-1.186zm2.915-.439 1.074-1.537 1.071 1.537a2.369 2.369 0 0 0-1.071 1.4 2.7 2.7 0 0 0-1.069-1.395zm2.391-.122c-.22-.056-.622-.757-.622-.757s-.066-.16.132-.655.218-.871.389-.813c0 0 .161-.074.13.365a1.416 1.416 0 0 0 .358 1.168 2.859 2.859 0 0 0 .85.351 5.839 5.839 0 0 1-1.18.35.162.162 0 0 1-.052-.007zm-3.869-.342a2.812 2.812 0 0 0 .846-.351 1.41 1.41 0 0 0 .359-1.168c-.029-.439.131-.365.131-.365.168-.058.19.314.389.813s.131.655.131.655-.4.7-.622.757a.148.148 0 0 1-.054.008 5.779 5.779 0 0 1-1.176-.347zm4.563-.555a1 1 0 0 1 .146-.087 1.441 1.441 0 0 0 .232-.191 1.775 1.775 0 0 0 .418-1.016c.016-.255.226-.205.226-.205s.263.2.49.382.116.356.116.356-.591.922-1.022 1.017a.707.707 0 0 1-.144.016.531.531 0 0 1-.457-.269zm-4.627.256c-.434-.095-1.025-1.017-1.025-1.017s-.108-.175.117-.356.49-.382.49-.382.212-.05.225.205a1.788 1.788 0 0 0 .418 1.016 1.4 1.4 0 0 0 .234.191 1.154 1.154 0 0 1 .146.087.538.538 0 0 1-.465.271.653.653 0 0 1-.134-.012zm2.645-1.188-.562.628v-1.368l-.675-.774 1.233-1.231 1.229 1.231-.674.774.006 1.368zm-.516-1.493.516.487.513-.487-.513-.514z" transform="translate(-13058.002 -9997)" style="fill:#fff;stroke:transparent;stroke-miterlimit:10"/>
</svg>
