<svg xmlns="http://www.w3.org/2000/svg" width="32" height="32">
    <path style="opacity:.337;fill:none" d="M0 0h32v32H0z"/>
    <g data-name="Group 1773">
        <g data-name="Group 1880">
            <path data-name="Path 1084" d="M552.275 550.985v-4.195l-2.64-.312a8.67 8.67 0 0 0-.74-1.8l1.64-2.081-2.966-2.965-2.081 1.641a8.631 8.631 0 0 0-1.8-.744l-.317-2.637h-4.19l-.315 2.637a8.651 8.651 0 0 0-1.8.744l-2.082-1.641-2.962 2.962 1.64 2.084a8.678 8.678 0 0 0-.743 1.8l-2.637.312v4.194l2.637.312a8.54 8.54 0 0 0 .743 1.8l-1.64 2.082 2.964 2.966 2.081-1.64a8.845 8.845 0 0 0 1.8.74l.315 2.637h4.19l.317-2.637a8.783 8.783 0 0 0 1.8-.74l2.082 1.64 2.966-2.966-1.64-2.083a8.494 8.494 0 0 0 .74-1.8zm-11 .883a2.978 2.978 0 1 1 2.979-2.98 2.978 2.978 0 0 1-2.979 2.979z" transform="translate(-525.275 -532.888)" style="stroke:#fff;stroke-linecap:round;stroke-linejoin:round;stroke-width:1.3px;fill:none"/>
        </g>
    </g>
</svg>
