
<svg xmlns="http://www.w3.org/2000/svg" width="24" height="24" viewBox="0 0 24 24">
  <defs>
    <style>
      .cls-1 {
        fill: none;
      }

      .cls-2 {
        fill: #817e90;
      }
    </style>
  </defs>
  <g id="ico_reset" transform="translate(-1244 -256)">
    <rect id="area" class="cls-1" width="24" height="24" transform="translate(1244 256)"/>
    <path id="Path_959" data-name="Path 959" class="cls-2" d="M-159.027-856.206v1.536a7.486,7.486,0,0,0-5.925-2.9,7.5,7.5,0,0,0-7.5,7.5,7.5,7.5,0,0,0,7.5,7.5,7.5,7.5,0,0,0,7.35-6h-1.618a5.935,5.935,0,0,1-5.732,4.425,5.932,5.932,0,0,1-5.925-5.925A5.932,5.932,0,0,1-164.952-856a5.921,5.921,0,0,1,4.889,2.584h-1.756v1.575h4.368v-4.368Z" transform="translate(1421.452 1118.572)"/>
  </g>
</svg>
