
<svg xmlns="http://www.w3.org/2000/svg" width="50" height="50" viewBox="0 0 50 50">
    <path style="fill:none;opacity:.37" d="M0 0h50v50H0z"/>
    <g data-name="Group 2210">
        <path data-name="Union 89" d="M13.368 18.439a1.312 1.312 0 0 1-.619-1.113v-4.207L1.886 18.5a1.263 1.263 0 0 1-.578.138A1.31 1.31 0 0 1 0 17.326V1.307A1.307 1.307 0 0 1 1.98.188l10.768 6.451V1.307A1.309 1.309 0 0 1 14.73.188l14.633 8.767a1.307 1.307 0 0 1-.092 2.293L14.636 18.5a1.28 1.28 0 0 1-.578.138 1.319 1.319 0 0 1-.69-.199z" transform="translate(10.001 16)" style="fill:#fff;stroke:transparent;stroke-miterlimit:10"/>
    </g>
</svg>