<svg xmlns="http://www.w3.org/2000/svg" width="17" height="17" viewBox="0 0 17 17">
    <path style="fill:#23212a" d="M0 0h17v17H0z"/>
    <path data-name="Union 56" d="m11111.341-6763.035 1.491-7.229.433.539.432-.539 1.493 7.229-1.925 1.362zm3.233-7.754 1.355-1.355h5.337a4.962 4.962 0 0 1-3.628 1.913h-1l1.4 1.9-2.385.979zm-6.087 2.458 1.4-1.9h-1a4.955 4.955 0 0 1-3.626-1.913h5.333l1.358 1.355-1.086 3.436zm2.361-5.678.458-1h3.917l.458 1-2.417 2.813z" transform="translate(-11104.268 6777.008)" style="fill:#fff"/>
</svg>
