<svg xmlns="http://www.w3.org/2000/svg" width="14" height="14" viewBox="0 0 14 14">
  <defs>
    <style>
      .cls-1 {
        fill: #fff;
        opacity: 0;
      }

      .cls-2 {
        fill: #9d9df2;
      }
    </style>
  </defs>
  <g id="ico-baron" transform="translate(-731 -2682)">
    <rect id="area" class="cls-1" width="14" height="14" transform="translate(731 2682)"/>
    <path id="Path_3128" data-name="Path 3128" class="cls-2" d="M2039.122-549.793l1.876,3.522-.785.785h-2.146l-.821-.821-.821.821h-2.146l-.785-.785,1.876-3.522-5.124,3.716,4.206,10.2.823-.741,1.971-.008,1.971.008.823.741,4.206-10.2Zm-1.876,5.819a.9.9,0,0,1,.9.9.9.9,0,0,1-.9.9.9.9,0,0,1-.9-.9A.9.9,0,0,1,2037.246-543.974Zm-1.729,3.532a.9.9,0,0,1-.9-.9.9.9,0,0,1,.9-.9.9.9,0,0,1,.9.9A.9.9,0,0,1,2035.517-540.442Zm1.729,1.729a.9.9,0,0,1-.9-.9.9.9,0,0,1,.9-.9.9.9,0,0,1,.9.9A.9.9,0,0,1,2037.246-538.713Zm1.729-1.729a.9.9,0,0,1-.9-.9.9.9,0,0,1,.9-.9.9.9,0,0,1,.9.9A.9.9,0,0,1,2038.975-540.442Z" transform="translate(-1299.246 3231.793)"/>
  </g>
</svg>
