<svg xmlns="http://www.w3.org/2000/svg" width="14" height="14" viewBox="0 0 14 14">
  <defs>
    <style>
      .cls-1 {
        fill: #fff;
        opacity: 0;
      }

      .cls-2 {
        fill: #758ccb;
      }
    </style>
  </defs>
  <g id="ico-elders" transform="translate(-734 -2685)">
    <rect id="area" class="cls-1" width="14" height="14" transform="translate(734 2685)"/>
    <path id="Path_3127" data-name="Path 3127" class="cls-2" d="M694.517-305.356a18.758,18.758,0,0,1-2.664-4.138c-.6,3.684,1.153,4.138,1.247,4.8s-1.058.907-1.4-.076a6.306,6.306,0,0,0-1.379-1.984,6.307,6.307,0,0,0-1.379,1.984c-.34.982-1.493.737-1.4.076s1.852-1.115,1.247-4.8a18.758,18.758,0,0,1-2.664,4.138c-1.247,1.19-2.407,3.723-1.364,5.6a9.04,9.04,0,0,1,1.383,3.466s1.209-1.065.019-4.031c0,0-.4-.826.421-.784,0,0,.393-.009.713.83a3.151,3.151,0,0,0,.811,1.265,3,3,0,0,1,.831,2.1,1.374,1.374,0,0,0,1.379,1.417,1.374,1.374,0,0,0,1.379-1.417,3,3,0,0,1,.831-2.1,3.15,3.15,0,0,0,.811-1.265c.32-.839.713-.83.713-.83.821-.042.421.784.421.784-1.19,2.966.019,4.031.019,4.031a9.04,9.04,0,0,1,1.383-3.466C696.925-301.633,695.764-304.166,694.517-305.356Zm-6.315,3.022a1.144,1.144,0,0,1,1.19,1.285A1.148,1.148,0,0,1,688.2-302.334Zm3.048,4.85c-.191-.22-.928-.222-.928-.222s-.736,0-.928.222a2.973,2.973,0,0,0-.6-1.711,3.123,3.123,0,0,0,1.526.6,3.123,3.123,0,0,0,1.526-.6A2.973,2.973,0,0,0,691.251-297.484Zm0-3.565a1.144,1.144,0,0,1,1.19-1.285A1.148,1.148,0,0,1,691.253-301.049Z" transform="translate(50.64 2994.494)"/>
  </g>
</svg>
