<svg xmlns="http://www.w3.org/2000/svg" width="21" height="21" viewBox="0 0 21 21">
    <defs>
        <style>
            .cls-2{fill:#fff}
        </style>
    </defs>
    <g id="ico-position-jug" transform="translate(1)">
        <path id="area" transform="translate(-1)" style="fill:none" d="M0 0h21v21H0z"/>
        <g id="Group_2686" data-name="Group 2686" transform="translate(0 1)">
            <path id="Path_866" data-name="Path 866" class="cls-2" d="M392.664-628.974s3.5 7.255 2.893 11.977a10.651 10.651 0 0 0-6.364-5.988s3.224 2.348 3.554 8.363l5.875 5.648s2.748-4.513-.5-10.792a71.6 71.6 0 0 0-5.458-9.208z" transform="translate(-389.193 628.974)"/>
            <path id="Path_867" data-name="Path 867" class="cls-2" d="m483.147-617.969 1.185 4.243a127.519 127.519 0 0 1 3.747-12.233c-4.639 6.199-4.932 7.99-4.932 7.99z" transform="translate(-473.352 626.29)"/>
            <path id="Path_868" data-name="Path 868" class="cls-2" d="M509.432-571.948a12.765 12.765 0 0 0-6.144 11.654l3.141-3.334a11.5 11.5 0 0 1 3.003-8.32z" transform="translate(-491.432 577.315)"/>
        </g>
    </g>
</svg>
