<svg xmlns="http://www.w3.org/2000/svg" width="29" height="29" viewBox="0 0 29 29">
  <defs>
    <style>
      .cls-1, .cls-2 {
        fill: #fff;
      }

      .cls-1 {
        opacity: 0;
      }

      .cls-3 {
        fill: #d60812;
      }
    </style>
  </defs>
  <g id="fav" transform="translate(0 14)">
    <rect id="area" class="cls-1" width="29" height="29" transform="translate(0 -14)"/>
    <g id="Group_3018" data-name="Group 3018" transform="translate(4.999 -10)">
      <path id="Path_1086" data-name="Path 1086" class="cls-2" d="M118.378,298.613l1.467-.684-.684-1.467-1.467.684-1.467.684h0l-.733.342-.733.342-.342-.733-.341-.733-.734.341-.733.342-.341-.733-.342-.733-.733.341-.733.342-.342-.733-.342-.733-7.334,3.42.342.733.341.734-.733.341-.733.342.342.733.342.733-.734.342-.733.342.342.733.342.733-.733.342-.733.341,2.735,5.867-1.467.684-1.467.684.684,1.467,1.467-.684,1.467-.684.733-.342.733-.342.342.733.342.733.733-.341.733-.342.342.733.341.733.734-.342.733-.341.341.733.342.733,7.334-3.42-.342-.734-.341-.733.733-.341.733-.342-.342-.733L117.4,308l.733-.342.733-.342-.342-.733-.342-.733.734-.342.733-.342-2.736-5.866Zm-6.357,10.107-1.76.82-1.76.82-1.76.82-1.76.821-.684-1.467,1.76-.82,1.76-.82,1.76-.82,1.76-.821,1.76-.82.684,1.467Zm1.663-7.919-1.76.82-1.76.82-1.76.821-1.76.82-.684-1.467,1.759-.821,1.76-.82,1.76-.82,1.76-.82,1.76-.82.684,1.467Z" transform="translate(-99.895 -294.481)"/>
      <path id="Path_1087" data-name="Path 1087" class="cls-3" d="M114.464,312.189l-.684-1.467-8.8,4.1-.684-1.466-4.4,2.052.684,1.467,4.4-2.051.684,1.466Z" transform="translate(-99.895 -297.305)"/>
      <path id="Path_1088" data-name="Path 1088" class="cls-3" d="M121.379,298.151l-.684-1.467-4.4,2.053.684,1.467-8.8,4.1.684,1.467,10.267-4.788-.684-1.467Z" transform="translate(-101.429 -294.704)"/>
    </g>
  </g>
</svg>
